<svg width="36" height="36" viewBox="0 0 36 36" fill="none" xmlns="http://www.w3.org/2000/svg">
<path fill-rule="evenodd" clip-rule="evenodd" d="M19.0886 13.4342C17.2036 13.3456 7.37577 13.0951 3 14.9951C4.18389 15.6966 5.4508 16.4224 6.94219 17.2112C11.2749 15.1775 16.9022 14.4414 22.0713 14.1588V14.0278C21.0689 13.9031 19.9557 13.6886 19.0886 13.4342ZM23.5074 14.232C19.6267 14.62 12.7571 15.7479 8.84254 18.1927C10.2663 18.9096 11.7546 19.6225 13.2399 20.2854C17.3635 16.7629 22.8124 15.1994 28.369 14.1036V13.9751C26.9575 14.1421 24.8235 14.2436 23.5074 14.232ZM15.2878 21.168C17.1667 21.9465 19.107 22.6634 20.7614 23.1413C22.754 19.1691 26.3579 16.0177 33 13.131V13C24.4699 15.3394 19.1316 17.0146 15.2878 21.168Z" fill="white"/>
</svg>
