<svg width="36" height="36" viewBox="0 0 36 36" fill="none" xmlns="http://www.w3.org/2000/svg">
<path d="M15.1043 10C12.8916 10 10.6922 10.9111 9.12758 12.4758C8.14178 13.4616 7.41614 14.6993 7.01372 16.0334C6.04646 16.216 5.13295 16.6881 4.4364 17.3847C3.52851 18.2925 3 19.5682 3 20.8522C3 22.1361 3.52851 23.4122 4.4364 24.3201C5.3443 25.228 6.62039 25.7565 7.90434 25.7565H29.8696C30.6891 25.7565 31.5038 25.4193 32.0833 24.8398C32.6628 24.2603 33 23.4456 33 22.6261C33 21.8065 32.6628 20.9923 32.0833 20.4128C31.5073 19.8368 30.6991 19.5006 29.8846 19.4965C29.7257 18.0116 29.053 16.5824 27.9962 15.5256C26.7792 14.3086 25.0689 13.6 23.3478 13.6C22.93 13.6 22.5131 13.6428 22.1034 13.7235C21.8036 13.2761 21.4622 12.8569 21.0811 12.4758C19.5164 10.9111 17.3171 10 15.1043 10V10Z" fill="white"/>
</svg>
