<svg width="36" height="36" viewBox="0 0 36 36" fill="none" xmlns="http://www.w3.org/2000/svg">
<path d="M17.751 5C17.7851 5 17.8217 5.00147 17.8568 5.00147C17.8909 5.00147 17.9281 5 17.9622 5H17.751ZM27.6578 8.83775C27.3649 7.40558 26.4269 6.83261 25.0195 6.26013C23.6326 5.69501 20.3091 5.02009 17.8568 5.00147C15.4036 5.02058 12.0806 5.69501 10.6927 6.26013C9.28673 6.83212 8.34826 7.40558 8.05533 8.83775L7 16.7764V27.7157H8.81674V29.4307C8.81674 31.5231 11.9496 31.5231 11.9496 29.4307V27.7157H17.7329H17.751H23.763V29.4307C23.763 31.5231 26.8959 31.5231 26.8959 29.4307V27.7157H28.7127V16.7764L27.6578 8.83775ZM13.3902 7.00514H17.751H22.3229C23.2027 7.00514 23.2027 8.2937 22.3229 8.2937H17.7405H13.3897C12.5109 8.29321 12.5109 7.00514 13.3902 7.00514ZM10.3852 24.2868C9.55558 24.2868 8.88245 23.6285 8.88245 22.8183C8.88245 22.0076 9.55558 21.3504 10.3852 21.3504C11.2148 21.3504 11.888 22.0076 11.888 22.8183C11.888 23.6285 11.2148 24.2868 10.3852 24.2868ZM17.751 17.6136H9.78079C8.99982 17.6136 8.83681 17.0651 8.91355 16.5132L9.73464 10.7556C9.8475 10.0557 10.0898 9.595 11.0192 9.595H17.7405H24.6939C25.6229 9.595 25.8652 10.0557 25.978 10.7556L26.8001 16.5132C26.8763 17.0651 26.7128 17.6136 25.9324 17.6136H17.751V17.6136ZM25.329 24.2868C24.4988 24.2868 23.8257 23.6285 23.8257 22.8183C23.8257 22.0076 24.4988 21.3504 25.329 21.3504C26.1581 21.3504 26.8312 22.0076 26.8312 22.8183C26.8312 23.6285 26.1581 24.2868 25.329 24.2868Z" fill="white"/>
</svg>
