<svg width="36" height="36" viewBox="0 0 36 36" fill="none" xmlns="http://www.w3.org/2000/svg">
<path d="M18.0533 14C18.0533 14.2738 17.9924 14.5779 17.9316 14.8514C18.2662 14.9732 18.6615 14.8821 19.0568 14.9123C18.9656 15.2164 19.0568 15.7334 18.6311 15.8549C18.2662 15.8855 17.7491 15.7029 17.5971 16.159L17.0498 18.6224C17.293 18.896 17.7491 18.7439 18.0533 18.7439C18.1749 18.6834 18.2053 18.5007 18.3574 18.5007C18.2357 18.9266 18.3269 19.6259 17.81 19.8083L15.8409 19.816C15.5368 19.6337 15.5595 19.2001 15.6204 18.9266L16.3804 15.9159C16.2895 15.8247 16.1374 15.8247 15.9854 15.855C15.9242 15.5814 16.0461 15.3383 16.1374 15.0947C16.8064 15.0035 17.4146 14.6386 17.81 14H18.0533" fill="white"/>
<path d="M20.6381 15.1252C20.6381 15.2467 20.5772 15.3685 20.6076 15.4597C20.851 14.6994 21.5656 14.9426 22.1738 14.882C22.2955 15.1253 22.113 15.4294 22.0522 15.7029C21.5656 16.0985 20.7293 15.5508 20.4252 16.2505L19.6649 19.5348L19.7867 19.7477H18.4182L18.3269 19.5957L19.3305 15.1555C19.3305 15.0341 19.148 15.0341 19.2392 14.9426C19.6954 14.8514 20.0908 14.9426 20.5469 14.9426L20.6381 15.1252Z" fill="white"/>
<path d="M11.2108 15.1861L10.804 21.2453L32.1674 21.2528C32.3498 21.4203 32.6047 21.9905 33 22.0511L9.29503 22.0588L9.14297 21.8459C9.23416 20.3253 9.53826 18.8354 9.53826 17.3452C8.80841 18.896 8.13179 20.5154 7.49312 22.0968L6.43634 22.1197L6.34516 21.9979C6.25397 20.3862 6.22351 18.7745 5.98018 17.254L4.42934 21.6938C4.39893 21.8459 4.49007 22.0285 4.64212 22.0588H3.09118L3 21.9371C3.7298 19.7171 4.64212 17.5581 5.43284 15.3382C5.43284 15.1862 5.34166 15.0872 5.21992 14.9961C5.76741 14.8744 6.37562 15.0035 6.92291 14.9732C7.31834 15.1556 7.13583 15.6726 7.22701 16.007C7.31834 17.0714 7.34866 18.1358 7.53112 19.1698L7.65276 19.0178L9.2037 15.3382C9.2037 15.1862 9.11251 15.1556 9.02123 15.0341C9.17329 14.9124 11.0588 15.0035 11.0588 15.0035L11.2108 15.1861Z" fill="white"/>
<path d="M23.9833 17.3452C23.6488 17.3148 23.2534 17.3148 22.9189 17.3755C22.4932 17.5884 22.4019 18.0445 22.4019 18.5007C22.6757 18.8354 23.2839 18.7136 23.7096 18.6834L23.9833 17.3452ZM25.1085 14.9123C25.3518 15.0035 25.6559 15.1861 25.7167 15.4902C25.5647 16.8587 25.0781 18.1663 24.8652 19.565C24.8652 19.6259 24.9868 19.6562 24.9868 19.7477H23.6183C23.4663 19.5042 23.6183 19.2609 23.6488 19.0177C23.3142 19.261 23.1926 19.93 22.6148 19.8083C22.1587 19.778 21.5809 19.8998 21.2463 19.5042C20.8206 18.8048 21.1552 17.8925 21.4593 17.254C21.9762 16.2199 23.2534 16.7066 24.1658 16.4937C24.3483 16.372 24.3178 16.159 24.3483 15.9767C24.3178 15.7943 24.1353 15.7638 23.9529 15.7638H22.4324C22.148 15.5428 22.4123 15.1434 22.4628 14.9426L22.5539 14.882L25.1085 14.9123Z" fill="white"/>
<path d="M27.0107 15.5808V15.2933H27.2019C27.3003 15.2933 27.4045 15.3147 27.4045 15.4297C27.4045 15.5722 27.298 15.5808 27.1788 15.5808H27.0107ZM27.0107 15.6999H27.1723L27.4172 16.1023H27.5748L27.3107 15.6937C27.4471 15.6765 27.5512 15.6043 27.5512 15.438C27.5512 15.2551 27.4427 15.1743 27.2234 15.1743H26.8701V16.1023H27.0106V15.6999H27.0107ZM27.181 16.443C27.6195 16.443 27.9938 16.1023 27.9938 15.6361C27.9938 15.1743 27.6195 14.8336 27.181 14.8336C26.7381 14.8336 26.3635 15.1743 26.3635 15.6361C26.3635 16.1023 26.7381 16.443 27.181 16.443ZM26.5253 15.636C26.5253 15.255 26.8127 14.9675 27.181 14.9675C27.5447 14.9675 27.8324 15.255 27.8324 15.636C27.8324 16.0236 27.5447 16.3087 27.181 16.3087C26.8127 16.3087 26.5253 16.0236 26.5253 15.636Z" fill="white"/>
<path d="M13.2293 16.0108C13.0773 16.1932 12.9555 16.467 13.0164 16.6796H14.5369C14.7498 16.5582 14.689 16.2235 14.6586 16.0108C14.3848 15.5241 13.5334 15.6153 13.2293 16.0108ZM15.7229 15.4632C15.9053 16.0714 15.784 16.7405 15.5708 17.2878L15.2971 17.4705L12.7122 17.5008C12.5906 17.7746 12.4993 18.1396 12.6514 18.4437C13.0163 18.8084 13.5941 18.7172 14.1111 18.6869C14.5064 18.6869 14.841 18.5043 15.1451 18.2611L15.1755 18.3219C14.993 18.7478 15.1146 19.3863 14.5977 19.6601C13.7157 19.8122 12.7542 19.9604 11.7999 19.5686C10.8459 19.1775 11.4958 17.0752 11.8608 16.0108C12.2256 15.1591 13.1075 14.7944 13.9591 14.7639C14.6585 14.7638 15.4188 14.7944 15.7229 15.4632Z" fill="white"/>
<path d="M29.442 20.1163C29.7156 20.3289 29.7841 20.9032 30.2403 20.9262H11.2108C10.9067 20.7815 11.1879 20.394 11.1879 20.105L29.442 20.1163Z" fill="white"/>
</svg>
